<svg xmlns="http://www.w3.org/2000/svg" viewBox="0 0 64 64" aria-hidden="true">
  <defs>
    <radialGradient id="g" cx="50%" cy="38%" r="60%">
      <stop offset="0%" stop-color="#fff8e1"/>
      <stop offset="60%" stop-color="#f5d35c"/>
      <stop offset="100%" stop-color="#b8842a"/>
    </radialGradient>
  </defs>
  <circle cx="32" cy="32" r="30" fill="#0f1a2b" stroke="#f5d35c" stroke-width="2"/>
  <g transform="translate(32 30)" fill="#fff8e1">
    <!-- skull -->
    <path d="M-12-10c0-7 5-12 12-12s12 5 12 12c0 4-2 7-5 9v3h-14v-3c-3-2-5-5-5-9z"/>
    <circle cx="-5" cy="-9" r="3.2" fill="#0f1a2b"/>
    <circle cx="5" cy="-9" r="3.2" fill="#0f1a2b"/>
    <!-- straw hat brim -->
    <ellipse cx="0" cy="-22" rx="18" ry="3" fill="#f5d35c" stroke="#0f1a2b" stroke-width="1"/>
    <rect x="-7" y="-28" width="14" height="6" fill="#f5d35c" stroke="#0f1a2b" stroke-width="1"/>
    <rect x="-7" y="-25" width="14" height="2" fill="#c0392b"/>
    <!-- crossed bones -->
    <g transform="rotate(45)">
      <rect x="-22" y="6" width="44" height="4" rx="2" fill="#fff8e1"/>
      <circle cx="-22" cy="8" r="3" fill="#fff8e1"/>
      <circle cx="22" cy="8" r="3" fill="#fff8e1"/>
    </g>
    <g transform="rotate(-45)">
      <rect x="-22" y="6" width="44" height="4" rx="2" fill="#fff8e1"/>
      <circle cx="-22" cy="8" r="3" fill="#fff8e1"/>
      <circle cx="22" cy="8" r="3" fill="#fff8e1"/>
    </g>
  </g>
</svg>
